<mxfile host="app.diagrams.net" modified="2022-10-12T00:53:32.309Z" agent="5.0 (Windows NT 10.0; Win64; x64) AppleWebKit/537.36 (KHTML, like Gecko) Chrome/106.0.0.0 Safari/537.36" etag="6EvRdBE5xoRHPplWHEYy" version="18.1.3" type="github">
  <diagram id="vguXxMJpgeWO0cgwKLQp" name="Page-1">
    <mxGraphModel dx="1422" dy="762" grid="1" gridSize="10" guides="1" tooltips="1" connect="1" arrows="1" fold="1" page="1" pageScale="1" pageWidth="850" pageHeight="1100" math="0" shadow="0">
      <root>
        <mxCell id="0" />
        <mxCell id="1" parent="0" />
        <mxCell id="wMTbK0ep4ABIDW2_rMSn-1" value="" style="rounded=0;whiteSpace=wrap;html=1;" vertex="1" parent="1">
          <mxGeometry x="280" y="120" width="360" height="210" as="geometry" />
        </mxCell>
        <mxCell id="wMTbK0ep4ABIDW2_rMSn-3" style="edgeStyle=orthogonalEdgeStyle;rounded=0;orthogonalLoop=1;jettySize=auto;html=1;" edge="1" parent="1" source="wMTbK0ep4ABIDW2_rMSn-2" target="wMTbK0ep4ABIDW2_rMSn-1">
          <mxGeometry relative="1" as="geometry" />
        </mxCell>
        <mxCell id="wMTbK0ep4ABIDW2_rMSn-2" value="User" style="sketch=0;outlineConnect=0;fontColor=#232F3E;gradientColor=none;fillColor=#232F3D;strokeColor=none;dashed=0;verticalLabelPosition=bottom;verticalAlign=top;align=center;html=1;fontSize=12;fontStyle=0;aspect=fixed;pointerEvents=1;shape=mxgraph.aws4.user;" vertex="1" parent="1">
          <mxGeometry x="160" y="240" width="40" height="40" as="geometry" />
        </mxCell>
      </root>
    </mxGraphModel>
  </diagram>
</mxfile>
